<?xml version="1.0" encoding="utf-8"?>
<svg version="1.1" id="Layer_1" xmlns="http://www.w3.org/2000/svg" x="0px" y="0px" width="100%" viewBox="900 1000 2200 5500" enable-background="new 0 0 4000 7000">
  <path opacity="1.000000" stroke="none" d="M 1796.613 1325.508 C 1930.119 1335.949 2122.446 1342.172 2241.563 1403.36 C 2282.403 1424.339 1687.717 1423.466 1811.423 1394.379 C 1969.896 1357.118 2038.918 1692.991 1892.737 1679.855 C 1816.559 1673.009 1900.458 1555.632 1882.546 1481.274 C 1880.56 1473.031 1846.049 1452.345 1839.105 1457.211 C 1824.167 1467.679 1809.568 1532.867 1809.335 1533.894 C 1808.755 1536.45 1811.217 1538.824 1811.649 1541.41 C 1811.781 1542.201 1868.653 1566.858 1869.124 1567.507 C 1888.281 1593.885 1879.202 1374.675 1910.423 1371.787 C 2106.566 1353.644 2178.546 1348.184 2274.702 1520.1 C 2313.963 1590.295 2250.815 1810.229 2148.234 1872.826 C 2081.137 1913.771 1989.513 1882.166 2003.698 1924.721 C 1950.987 1955.99 1956.316 1908.895 1896.395 1896.022 C 1833.553 1882.521 1746.872 1911.174 1691.56 1870.444 C 1676.616 1859.439 1671.198 1819.755 1657.234 1807.531 C 1642.616 1794.734 1595.684 1796.042 1653.63 1749.492 C 1667.457 1738.384 1689.394 1752.833 1706.839 1749.633 C 1710.104 1749.034 1689.749 1742.801 1688.621 1739.68 C 1680.316 1716.699 1689.827 1693.872 1678.807 1672.062 C 1677.41 1669.298 1671.576 1670.522 1670.681 1667.557 C 1669.078 1662.248 1675.227 1655.814 1672.45 1651.014 C 1665.58 1639.14 1652.891 1631.73 1643.94 1621.334 C 1639.313 1615.961 1632.916 1610.851 1631.834 1603.843 C 1630.44 1594.815 1633.858 1585.492 1637.085 1576.946 C 1638.954 1571.996 1643.21 1568.286 1646.747 1564.35 C 1687.12 1519.421 1729.699 1476.447 1768.781 1430.391 C 1794.466 1400.123 1788.054 1324.839 1796.613 1325.508 Z" style="fill: rgb(206, 110, 83);"/>
  <path fill="#000001" opacity="1.000000" stroke="none" d="M 2758.335 1419.837 C 2775.173 1464.76 2788.673 1510.642 2797.958 1557.736 C 2806.33 1600.197 2812.361 1642.981 2816.33 1686.083 C 2824.086 1770.328 2826.297 1854.82 2828.49 1939.332 C 2831.114 2040.479 2834.228 2141.615 2837.257 2242.752 C 2838.811 2294.648 2840.656 2346.536 2842.306 2398.43 C 2842.386 2400.961 2841.848 2403.511 2841.505 2406.99 C 2831.313 2409.567 2821.364 2408.014 2811.587 2408.288 C 2802.274 2408.55 2792.948 2408.347 2781.153 2406.805 C 2777.825 2396.709 2591.887 2200.804 2556.042 2193.155 C 2528.04 2185.415 2424.528 2164.111 2405.663 2158.697 C 2369.799 2142.984 2238.148 2068.001 2233.739 2064.126 C 2219.965 2052.017 2164.973 1865.037 2147.822 1819.314 C 2146.004 1814.468 2145.289 1809.209 2145.661 1804.041 C 2184.766 1798.624 2214.345 1780.868 2235.638 1749.091 C 2260.068 1712.633 2268.231 1672.493 2263.8 1629.496 C 2261.212 1604.385 2241.026 1590.924 2216.807 1597.942 C 2207.327 1600.689 2198.442 1605.507 2189.313 1609.444 C 2184.624 1611.466 2179.994 1613.625 2175.426 1615.683 C 2174.217 1613.429 2172.992 1612.237 2173.118 1611.211 C 2174.809 1597.426 2177.302 1583.711 2178.376 1569.884 C 2179.916 1550.068 2184.615 1530.58 2183.829 1510.512 C 2183.258 1495.93 2182.519 1481.471 2180.781 1466.909 C 2177.6 1440.25 2171.419 1414.754 2159.736 1390.578 C 2157.432 1385.811 2155.709 1380.761 2155.277 1374.946 C 2160.785 1373.594 2164.728 1372.84 2168.688 1372.73 C 2201.945 1371.805 2235.186 1372.609 2268.436 1368.773 C 2292.186 1366.033 2315.973 1363.644 2339.7 1360.486 C 2380.615 1355.042 2421.018 1347.046 2461.04 1337.204 C 2517.976 1323.203 2573.861 1305.768 2628.305 1283.862 C 2632.371 1282.226 2636.836 1281.583 2642.165 1280.207 C 2645.492 1304.61 2648.745 1327.543 2651.714 1350.513 C 2654.61 1372.918 2657.238 1395.357 2659.944 1417.785 C 2662.73 1440.874 2665.451 1463.971 2668.234 1487.061 C 2670.938 1509.49 2672.99 1532.027 2676.604 1554.309 C 2680.287 1577.018 2681.048 1600.216 2686.833 1623.581 C 2713.271 1619.031 2738.211 1612.844 2762.92 1605.919 C 2766.02 1597.757 2763.709 1590.834 2761.542 1583.88 C 2747.285 1538.129 2733.093 1492.359 2718.791 1446.623 C 2702.9 1395.805 2686.812 1345.047 2671.09 1294.177 C 2668.962 1287.289 2668.464 1279.898 2667.531 1272.431 C 2667.851 1272.121 2668.467 1271.477 2669.664 1272.128 C 2684.589 1293.95 2698.529 1314.987 2711.986 1336.33 C 2724.385 1355.994 2736.265 1375.986 2748.62 1396.869 C 2749.938 1398.675 2751.01 1399.446 2752.091 1400.07 C 2752.101 1399.923 2751.814 1399.863 2751.62 1401.263 C 2751.705 1409.202 2753.801 1415.01 2758.335 1419.837 Z" style=""/>
  <path opacity="1.000000" stroke="none" d="M 2659.573 2223.175 C 2652.116 2234.604 2435.172 2645.726 2432.753 2650.4 C 2410.708 2692.983 2342.978 2871.777 2326.719 2876.349 C 2297.79 2884.484 2201.883 3225.984 2206.579 3267.252 C 2206.728 3268.565 1736.092 3341.298 1725.007 3341.729 C 1719.4 3325.047 1652.649 2813.05 1644.297 2806.726 C 1644.8 2803.81 1474.625 2418.541 1469.631 2400.136 C 1481.385 2410.921 1699.019 2264.158 1708.903 2274.934 C 1729.131 2296.989 2358.96 2158.125 2381.834 2143.748"/>
  <path fill="#CE6E53" opacity="1.000000" stroke="none" d="M 1583.599 5890.034 C 1577.592 5851.959 1569.445 5799.902 1563.933 5761.756 C 1558.702 5725.566 1538.566 5521.098 1535.164 5477.995 C 1530.128 5414.188 1530.421 5350.269 1532.427 5286.417 C 1533.7 5245.903 1544.634 5119.839 1542.841 5097.339 C 1540.148 5063.547 1515.493 4956.688 1512.42 4942.458 C 1505.124 4908.678 1474.309 4728.147 1474.678 4718.127 C 1492.748 4723.932 1845.059 4765.225 1843.009 4778.243 C 1839.715 4799.162 1810.703 5052.364 1810.288 5066.256 C 1809.533 5091.553 1881.497 5305.431 1875.268 5339.031 C 1872.269 5355.206 1795.029 5882.514 1783.26 5910.31 C 1770.843 5939.637 1599.823 5893.366 1583.599 5890.034 Z"/>
  <path fill="#CE6E53" opacity="1.000000" stroke="none" d="M 2409.61 5883.829 C 2402.235 5862.473 2389.813 5826.147 2382.831 5804.663 C 2351.166 5707.219 2322.502 5608.921 2298.593 5509.252 C 2281.516 5438.063 2250.446 5226.344 2247.46 5192.554 C 2245.118 5166.05 2243.506 5139.464 2236.464 5113.624 C 2227.023 5078.983 2185.76 4971.405 2181.566 4961.032 C 2169.606 4931.446 2120.968 4788.643 2111.313 4757.09 C 2124.979 4755.324 2475.173 4668.094 2476.893 4669.331 C 2477.228 4671.31 2492.633 5007.481 2493.386 5032.637 C 2493.689 5042.772 2523.713 5109.115 2555.43 5184.828 C 2585.382 5256.324 2609.743 5352.238 2610.604 5358.433 C 2612.957 5375.365 2612.476 5828.113 2612.637 5840.692 C 2612.825 5855.342 2603.628 5870.974 2567.818 5871.642 C 2552.579 5871.927 2424.849 5883.553 2409.61 5883.829 Z"/>
  <path opacity="1.000000" d="M 2524.626 4498.269 C 2524.626 4494.12 2549.968 4563.818 2559.187 4594.845 C 2564.271 4611.958 2569.654 4628.981 2574.686 4646.108 C 2575.587 4649.178 2575.43 4652.558 2575.77 4655.881 C 2569.85 4662.21 2562.326 4664.804 2555.004 4667.723 C 2531.665 4677.03 2508.317 4686.317 2482.114 4696.305 C 2473.549 4698.729 2467.792 4700.309 2462.145 4702.217 C 2385.171 4728.224 2306.693 4748.264 2226.387 4760.732 C 2189.627 4766.44 2152.679 4770.941 2115.817 4775.989 C 2104.592 4776.183 2093.567 4777.027 2082.363 4779.008 C 2069.473 4781.287 2055.917 4779.575 2042.677 4780.168 C 2034.154 4780.55 2025.686 4782.055 2017.177 4782.881 C 2011.916 4783.392 2006.623 4783.84 2001.343 4783.857 C 1972.822 4783.953 1944.298 4784.068 1915.779 4783.791 C 1908.584 4783.721 1901.422 4781.829 1894.211 4781.489 C 1879.013 4780.771 1863.793 4780.526 1845.028 4779.817 C 1795.289 4775.222 1749.073 4771.425 1703.109 4764.781 C 1630.879 4754.338 1559.453 4740.232 1488.994 4721.212 C 1484.027 4719.872 1478.893 4719.154 1474.057 4718.19 C 1472.377 4722.18 1471.119 4725.167 1469.861 4728.155 C 1469.251 4727.886 1468.385 4727.789 1468.072 4727.322 C 1465.184 4723.023 1463.307 4717.286 1459.349 4714.655 C 1453.994 4711.095 1447.083 4709.847 1440.804 4707.71 C 1425.697 4702.57 1410.536 4697.589 1395.477 4692.313 C 1391.919 4691.066 1388.679 4688.912 1384.476 4686.755 C 1390.364 4662.836 1395.964 4639.74 1401.741 4616.689 C 1411.738 4576.804 1421.774 4536.93 1431.927 4497.084 C 1439.131 4468.812 1446.594 4440.604 1453.842 4412.343 C 1454.99 4407.866 1455.611 4403.254 1458.698 4397.422 C 1464.855 4393.782 1469.077 4391.796 1472.676 4389.007 C 1490.661 4375.072 1505.501 4358.074 1519.211 4340.067 C 1548.311 4301.848 1747.199 3288.701 1766.294 3247.013 C 1784.804 3247.214 2084.877 3086.039 2122.883 3140.132 C 2145.095 3171.743 2505.438 4492.28 2510.244 4494.178 C 2514.669 4495.925 2518.764 4499.74 2524.626 4498.269 Z" style="" fill="black"/>
  <path opacity="1.000000" stroke="none" d="M 2447.428 4271.96 C 2458.47 4303.184 2524.626 4494.12 2524.626 4498.269 C 2518.764 4499.74 2514.669 4495.925 2510.244 4494.178 C 2505.438 4492.28 2500.876 4489.766 2494.226 4486.223 C 2490.891 4484.58 2489.537 4484.234 2488.183 4483.889 C 2488.183 4483.889 2488.063 4483.943 2487.426 4482.691 C 2484.573 4479.966 2482.453 4478.315 2480.125 4477.045 C 2420.319 4444.4 2364.209 4406.289 2311.587 4363.033 C 2301.814 4355 2293.094 4345.322 2282.404 4338.854 C 2266.14 4329.012 2253.466 4316.013 2241.706 4301.529 C 2237.59 4296.459 2231.958 4292.621 2226.542 4287.023 C 2219.621 4279.094 2213.239 4272.299 2206.721 4265.637 C 2175.474 4233.699 2146.993 4199.386 2119.762 4164.023 C 2077.835 4109.579 2040.726 4051.936 2007.914 3991.623 C 1981.196 3942.511 1956.15 3892.515 1935.924 3838.4 C 1935.603 3822.582 1928.161 3603.22 1928.071 3589.999 C 1927.901 3564.714 1924.278 3456.114 1930.146 3454.208 C 1937.744 3451.74 2037.599 3477.826 2051.292 3477.427 C 2076.784 3479.166 2100.675 3482.038 2124.287 3485.186 C 2141.498 3487.481 2158.585 3488.177 2175.75 3488.195 C 2175.67 3488.614 2225.098 3484.47 2225.203 3485.943 C 2234.414 3513.717 2291.635 3714.877 2306.44 3757.42 C 2322.774 3804.354 2414.398 4156.728 2419.502 4171.033 C 2430.409 4201.602 2436.608 4241.361 2447.428 4271.96 Z" fill="#D70C52"/>
  <path fill="#000001" opacity="1.000000" stroke="none" d="M 2222.91 1020.099 C 2225.938 1021.146 2228.916 1022.92 2232.003 1023.134 C 2388.418 1033.973 2528.192 1110.804 2635.323 1225.279 C 2628.453 1228.698 2612.538 1218.839 2606.122 1220.536 C 2532.231 1240.07 2457.011 1252.802 2381.431 1263.3 C 2343.347 1268.589 2305 1272.342 2266.656 1275.288 C 2232.234 1277.933 2197.668 1279.277 2163.143 1279.86 C 2094.661 1281.017 2026.176 1280.719 1957.807 1275.619 C 1954.492 1275.372 1951.163 1275.268 1947.859 1274.925 C 1926.097 1272.663 1904.337 1270.384 1882.583 1268.051 C 1866.75 1266.353 1850.886 1264.867 1835.116 1262.699 C 1826.015 1261.448 1817.074 1259.03 1808.06 1257.137 C 1828.542 1191.279 1868.433 1139.755 1924.336 1100.185 C 1968.827 1068.692 2018.472 1048.787 2071.237 1036.407 C 2087.989 1032.476 2105.137 1030.245 2122.081 1027.115 C 2125.308 1026.518 2128.429 1025.346 2134.808 1024.01 C 2145.228 1023.066 2152.447 1022.645 2159.646 1022.005 C 2164.873 1021.541 2170.074 1020.788 2176.546 1020.498 C 2179.473 1020.365 2181.142 1019.896 2184.667 1019.621 C 2198.652 1019.909 2210.781 1020.004 2222.91 1020.099 Z" style=""/>
  <path opacity="1.000000" stroke="none" d="M 2432.638 2646.524 C 2426.728 2639.55 2478.38 2481.645 2492.378 2435.794 C 2495.534 2425.457 2500.182 2416.222 2507.204 2407.875 C 2550.527 2356.376 2593.64 2304.701 2636.806 2253.071 C 2644.5 2243.869 2652.116 2234.604 2660.665 2224.196 C 2665.235 2224.355 2669.605 2224.823 2672.478 2227.144 C 2707.905 2255.767 2739.321 2288.013 2761.572 2328.254 C 2770.393 2344.207 2774.686 2361.508 2776.145 2379.605 C 2776.835 2388.17 2777.825 2396.709 2779.277 2406.803 C 2779.626 2410.328 2779.184 2412.307 2779.158 2414.292 C 2778.301 2480.22 2777.001 2546.147 2776.894 2612.076 C 2776.85 2638.669 2779.428 2665.266 2779.604 2694.287 C 2761.635 2709.005 2659.963 2836.766 2641.196 2836.747 C 2636.003 2836.742 2526.04 2835.958 2520.847 2836.032" style="fill: rgb(206, 110, 83);"/>
  <path fill="#CE6E53" opacity="1.000000" stroke="none" d="M 2869.411 2946.535 C 2874.887 2962.897 2880.718 2979.152 2885.776 2995.643 C 2902.955 3051.657 2918.007 3108.22 2930.196 3165.565 C 2939.978 3211.592 2942.449 3257.849 2937.692 3304.584 C 2937.153 3309.881 2937.027 3315.218 2936.617 3320.53 C 2932.774 3370.307 2929.097 3420.098 2924.987 3469.854 C 2922.193 3503.689 2919.016 3537.498 2915.583 3571.275 C 2912.487 3601.733 2908.798 3632.131 2905.394 3662.558 C 2902.212 3691.004 2899.113 3719.461 2895.861 3747.899 C 2895.03 3755.164 2893.758 3762.378 2890.296 3771.053 C 2874.109 3771.954 2860.304 3771.629 2846.528 3770.804 C 2838.052 3770.297 2829.636 3768.844 2821.165 3768.159 C 2815.27 3767.682 2809.046 3768.879 2803.458 3767.434 C 2785.305 3762.739 2719.948 3766.455 2718.47 3765.348 C 2700.019 3751.525 2678.745 3301.635 2684.186 3318.706 C 2690.959 3339.959 2608.833 3094.329 2617.253 3082.25 C 2631.346 3062.03 2867.953 2948.688 2869.411 2946.535 Z"/>
  <path opacity="1.000000" stroke="none" d="M 1806.313 1257.272 C 1817.074 1259.03 1826.015 1261.448 1835.116 1262.699 C 1850.886 1264.867 1866.75 1266.353 1882.583 1268.051 C 1904.337 1270.384 1926.097 1272.663 1947.859 1274.925 C 1951.163 1275.268 1954.492 1275.372 1957.807 1275.619 C 2026.176 1280.719 2094.661 1281.017 2163.143 1279.86 C 2197.668 1279.277 2232.234 1277.933 2266.656 1275.288 C 2305 1272.342 2343.347 1268.589 2381.431 1263.3 C 2457.011 1252.802 2532.231 1240.07 2606.122 1220.536 C 2612.538 1218.839 2618.963 1217.174 2626.661 1214.921 C 2633.758 1213.984 2683.147 1223.997 2674.398 1230.37 C 2685.411 1245.563 2699.051 1257.272 2711.279 1270.229 C 2723.17 1282.83 2735.405 1295.107 2747.47 1307.546 C 2759.999 1320.463 2772.489 1333.416 2785.023 1346.327 C 2797.093 1358.761 2809.206 1371.153 2821.285 1383.577 C 2833.803 1396.451 2846.305 1409.342 2858.501 1421.905 C 2852.444 1438.937 2827.569 1485.951 2816.629 1500.862 C 2798.315 1475.002 2782.958 1447.82 2764.891 1419.415 C 2759.923 1411.285 2755.868 1405.574 2751.814 1399.863 C 2751.814 1399.863 2752.101 1399.923 2751.696 1399.161 C 2750.66 1397.155 2749.687 1396.299 2748.373 1395.833 C 2736.265 1375.986 2724.385 1355.994 2711.986 1336.33 C 2698.529 1314.987 2684.589 1293.95 2669.303 1271.486 C 2667.194 1270.094 2666.643 1269.996 2666.091 1269.897 C 2666.464 1270.845 2666.837 1271.793 2667.21 1272.74 C 2668.464 1279.898 2668.962 1287.289 2671.09 1294.177 C 2686.812 1345.047 2702.9 1395.805 2718.791 1446.623 C 2733.093 1492.359 2747.285 1538.129 2761.542 1583.88 C 2763.709 1590.834 2766.02 1597.757 2762.92 1605.919 C 2738.211 1612.844 2713.271 1619.031 2686.833 1623.581 C 2681.048 1600.216 2680.287 1577.018 2676.604 1554.309 C 2672.99 1532.027 2670.938 1509.49 2668.234 1487.061 C 2665.451 1463.971 2662.73 1440.874 2659.944 1417.785 C 2657.238 1395.357 2654.61 1372.918 2651.714 1350.513 C 2648.745 1327.543 2645.492 1304.61 2642.165 1280.207 C 2636.836 1281.583 2632.371 1282.226 2628.305 1283.862 C 2573.861 1305.768 2517.976 1323.203 2461.04 1337.204 C 2421.018 1347.046 2380.615 1355.042 2339.7 1360.486 C 2315.973 1363.644 2292.186 1366.033 2268.436 1368.773 C 2235.186 1372.609 2201.945 1371.805 2168.688 1372.73 C 2164.728 1372.84 2160.785 1373.594 2153.796 1374.848 C 2142.281 1374.558 2133.824 1372.733 2125.326 1372.513 C 2095.688 1371.746 2066.016 1372.798 2036.498 1368.363 C 2025.505 1366.711 2014.3 1366.997 2003.141 1365.155 C 1992.578 1363.412 1980.935 1360.186 1970.046 1367.323 C 1968.815 1366.818 1968.491 1366.19 1967.753 1363.961 C 1952.263 1355.834 1936.133 1355.074 1920.612 1352.607 C 1878.623 1345.933 1837.882 1334.35 1796.892 1323.654 C 1791.176 1319.166 1785.039 1315.117 1779.831 1310.103 C 1767.831 1298.549 1764.69 1280.53 1771.521 1266.077 C 1775.532 1257.59 1779.214 1255.271 1788.708 1255.809 C 1794.007 1256.109 1799.281 1256.86 1806.313 1257.272" fill="#D60E53"/>
  <path fill="#D70C52" opacity="1.000000" stroke="none" d="M 1608.181 2300.259 C 1601.707 2293.861 1650.422 2246.303 1658.297 2241.74 C 1661.331 2239.982 1664.368 2238.227 1667.338 2236.364 C 1685.946 2224.692 1704.572 2213.046 1723.03 2201.138 C 1731.551 2195.641 1831.104 2089.982 1852.91 2099.058 C 1909.781 2122.73 2158.763 2028.802 2218.812 2015.637 C 2225.71 2014.125 2278.533 2082.72 2289.625 2085.233 C 2310.282 2089.912 2455.089 2165.169 2448.949 2174.109 C 2435.982 2192.991 2090.705 2579.362 1983.881 2542.568 C 1860.923 2500.217 1700.681 2391.671 1608.181 2300.259 Z"/>
  <path opacity="1.000000" stroke="none" d="M 1670.903 2399.651 C 1677.247 2418.541 1705.821 2751.412 1640.04 2807.351 C 1633.64 2812.794 1585.595 2855.718 1581.415 2868.638 C 1576.528 2863.322 1498.019 2744.468 1471.716 2714.514 C 1467.509 2709.724 1463.888 2703.271 1455.872 2704.02 C 1455.945 2703.98 1455.911 2704.134 1456.061 2702.874 C 1454.743 2699.749 1453.275 2697.883 1451.908 2696.001 C 1452.009 2695.985 1451.952 2696.182 1451.636 2695.173 C 1450.159 2693.449 1448.997 2692.733 1447.926 2691.999 C 1448.018 2691.98 1447.982 2692.163 1447.678 2691.143 C 1446.204 2689.409 1445.033 2688.694 1443.948 2687.973 C 1444.034 2687.967 1444.019 2688.138 1443.719 2687.117 C 1442.255 2685.376 1441.089 2684.656 1439.985 2683.95 C 1440.046 2683.964 1440.046 2684.088 1439.962 2682.657 C 1437.874 2679.485 1435.871 2677.744 1433.399 2675.879 C 1432.931 2675.754 1432.005 2674.12 1431.806 2672.801 C 1430.352 2670.32 1429.096 2669.158 1427.934 2667.991 C 1428.028 2667.986 1427.974 2668.166 1427.682 2667.139 C 1426.204 2665.424 1425.018 2664.737 1423.928 2664.056 C 1424.024 2664.062 1423.936 2664.233 1423.953 2662.808 C 1419.195 2654.266 1414.474 2647.111 1409.632 2640.039 C 1402.151 2629.113 1394.587 2618.242 1387.058 2607.348 C 1387.627 2604.762 1387.949 2602.093 1388.802 2599.604 C 1407.08 2546.267 1425.193 2492.871 1443.854 2439.667 C 1451.313 2418.401 1459.806 2397.487 1468.191 2376.558 C 1477.627 2353.006 1493.821 2334.949 1514.667 2320.792 C 1531.767 2309.178 1550.077 2299.896 1571.727 2292.281 C 1592.168 2308.957 1610.074 2325.208 1627.752 2341.704 C 1632.262 2345.913 1636.947 2348.985 1643.559 2350.212 C 1645.621 2354.187 1646.934 2357.389 1649.267 2359.417 C 1657.233 2366.34 1663.476 2374.414 1667.675 2385.503 C 1668.286 2391.277 1666.491 2396.243 1670.903 2399.651 Z" style="fill: rgb(206, 110, 83);"/>
  <path fill="#5A4658" opacity="1.000000" stroke="none" d=" M1136.086426,4115.296875 C1136.119385,4121.949707 1136.450317,4128.616211 1136.139771,4135.252930 C1132.651245,4209.811035 1129.073608,4284.364258 1125.498413,4358.918457 C1123.934326,4391.536133 1122.261475,4424.148926 1120.741333,4456.769043 C1116.212280,4553.963379 1111.868164,4651.166504 1107.198853,4748.354004 C1102.657349,4842.877930 1097.719971,4937.381836 1093.114258,5031.902344 C1089.805908,5099.797852 1086.855347,5167.710938 1083.564819,5235.607422 C1080.306396,5302.837402 1076.813232,5370.055664 1073.439941,5437.279785 C1071.836792,5469.228516 1070.216675,5501.177246 1068.702271,5533.129883 C1064.159546,5628.988770 1059.795410,5724.855957 1055.114380,5820.708008 C1050.595947,5913.230957 1045.683228,6005.734375 1041.108276,6098.254883 C1037.784058,6165.482422 1034.739380,6232.723145 1031.547363,6299.957520 C1030.125122,6329.913086 1028.678711,6359.867676 1027.157959,6389.818848 C1026.956299,6393.790039 1026.665527,6397.842285 1025.694946,6401.673828 C1022.939392,6412.550781 1013.725586,6419.515137 1004.003662,6418.503906 C994.113464,6417.476562 985.505615,6409.237793 984.212585,6398.911621 C983.637695,6394.321289 983.929688,6389.589844 984.145325,6384.937500 C985.903992,6346.991211 987.672668,6309.045410 989.566101,6271.105957 C991.559265,6231.170410 993.761536,6191.245117 995.751160,6151.309570 C999.432129,6077.428223 1003.046997,6003.542969 1006.644775,5929.657715 C1008.492310,5891.715332 1010.191040,5853.766602 1012.049316,5815.824707 C1015.504944,5745.268555 1019.053040,5674.716309 1022.513489,5604.160645 C1024.374268,5566.219727 1026.097778,5528.270996 1027.945312,5490.329590 C1031.413452,5419.106445 1034.922485,5347.885254 1038.423584,5276.663574 C1039.994263,5244.713379 1041.658691,5212.767090 1043.154419,5180.813477 C1046.364014,5112.245117 1049.380859,5043.667969 1052.684326,4975.104492 C1055.923584,4907.873535 1059.528076,4840.659668 1062.772949,4773.428711 C1066.082031,4704.865723 1069.066650,4636.287598 1072.344482,4567.723145 C1075.622070,4499.159668 1079.092773,4430.605469 1082.466553,4362.046387 C1084.170044,4327.433105 1085.899902,4292.821289 1087.520264,4258.204590 C1089.078369,4224.919434 1090.510498,4191.628906 1092.818359,4155.560059 C1106.276489,4144.446289 1117.031128,4134.009277 1127.276611,4122.961426 C1129.908203,4120.124023 1133.133911,4117.836914 1136.086426,4115.296875 z"/>
  <path fill="#CE7453" opacity="1.000000" stroke="none" d="M 2862.99 4053.727 C 2860.802 4074.094 2866.214 4099.336 2873.106 4118.151 C 2892.494 4171.076 2911.761 4224.044 2931.619 4279.803 C 2933.751 4292.931 2947.252 4328.244 2946.503 4334.839 C 2945.506 4343.617 2910.948 4375.455 2907.131 4378.051 C 2874.197 4400.445 2843.145 4425.602 2808.413 4445.357 C 2787.637 4457.175 2767.449 4469.776 2744.153 4476.936 C 2721.397 4483.929 2710.927 4478.71 2700.919 4458.037 C 2700.339 4456.838 2699.735 4455.645 2699.246 4454.407 C 2690.188 4431.491 2683.69 4407.856 2680.028 4383.501 C 2678.06 4370.414 2677.598 4357.061 2675.022 4344.113 C 2671.133 4324.556 2627.481 4336.342 2623.821 4333.71 C 2613.036 4325.955 2608.762 4315.378 2611.992 4302.275 C 2613.421 4296.475 2614.811 4290.562 2617.171 4285.112 C 2627.746 4260.692 2637.818 4236.001 2649.654 4212.194 C 2667.43 4176.441 2686.529 4141.346 2707.618 4104.94 C 2711.428 4103.498 2740.932 4019.102 2741.999 4018.399 C 2779.577 3993.643 2859.085 4053.652 2862.99 4053.727 Z"/>
  <path fill="#CE6E53" opacity="1.000000" stroke="none" d="M 2298.717 6422.994 C 2281.922 6428.908 2264.468 6428.124 2247.274 6426.835 C 2201.276 6423.385 2156.419 6413.776 2112.46 6399.855 C 2098.529 6395.443 2089.016 6387.244 2087.98 6371.843 C 2086.901 6355.808 2093.132 6343.206 2107.095 6334.992 C 2115.909 6329.806 2125.712 6328.346 2135.908 6328.213 C 2184.112 6327.586 2231.375 6320.008 2277.856 6307.645 C 2305.573 6300.272 2332.407 6290.484 2357.566 6276.282 C 2380.209 6263.5 2398.087 6246.282 2411.104 6223.794 C 2425.542 6198.849 2436.131 6172.301 2444.066 6144.707 C 2449.766 6124.886 2454.592 6104.813 2461.573 6084.151 C 2472.139 6093.513 2615.988 6036.879 2617.539 6067.009 C 2618.382 6083.382 2744.346 6342.423 2709.332 6412.068 C 2705.067 6420.55 2656.911 6427.507 2619.024 6420.146 C 2569.607 6410.544 2514.097 6376.944 2511.212 6371.688 C 2498.803 6349.076 2410.508 6375.76 2386.592 6386.072 C 2365.127 6395.328 2357.302 6401.819 2334.594 6410.756 C 2328.697 6413.077 2302.748 6417.819 2298.717 6422.994 Z"/>
  <path fill="#584456" opacity="1.000000" stroke="none" d=" M1199.381470,2343.362061 C1201.994995,2349.654541 1196.752319,2353.228760 1194.069946,2357.334717 C1170.402100,2393.562500 1148.724976,2430.916748 1129.681641,2469.779297 C1124.744507,2479.854492 1120.192993,2490.118652 1115.053467,2501.180664 C1120.025269,2503.861084 1123.971558,2505.958008 1127.889404,2508.106445 C1142.438354,2516.083496 1157.338867,2523.501221 1171.378662,2532.292480 C1179.146606,2537.156494 1185.887573,2543.923584 1192.335205,2550.566895 C1200.490112,2558.968994 1204.504028,2569.116455 1204.022461,2581.296631 C1203.129272,2603.890625 1203.344971,2626.527344 1202.549561,2649.126953 C1200.139771,2717.598633 1197.464722,2786.061035 1194.906006,2854.527344 C1194.806641,2857.184326 1194.841675,2859.846191 1194.650635,2865.944336 C1193.820801,2873.298096 1192.690186,2877.197754 1192.560425,2881.130615 C1191.445190,2914.937256 1191.964844,2948.734619 1188.806030,2982.553955 C1185.975220,3012.863525 1187.787231,3043.477295 1184.784058,3073.972656 C1181.864990,3103.614746 1183.962646,3133.555908 1180.883301,3163.408936 C1177.829102,3193.018799 1179.803345,3222.992432 1176.818604,3252.829102 C1173.920898,3281.798584 1175.718628,3311.081543 1172.875122,3340.264648 C1169.987793,3369.894775 1172.133667,3399.881348 1168.734131,3429.682861 C1166.711914,3447.410400 1168.084351,3465.524902 1167.120850,3484.695312 C1165.728394,3492.639893 1165.145630,3499.355225 1164.442261,3508.052979 C1164.304199,3528.471436 1164.286743,3546.907227 1164.269287,3565.343018 C1162.833374,3587.185547 1161.075806,3609.012939 1160.031616,3630.874268 C1158.098511,3671.344238 1156.582397,3711.834229 1154.229492,3755.508301 C1153.227539,3761.321533 1152.678467,3763.935059 1152.581665,3766.565186 C1150.898682,3812.295654 1149.270996,3858.028076 1146.354248,3903.874268 C1143.376709,3904.172607 1141.676270,3904.356934 1138.522217,3904.256348 C1127.440063,3902.732666 1120.111084,3897.614258 1113.105103,3891.123779 C1106.116699,3884.649658 1102.926880,3877.217773 1104.785156,3868.165283 C1109.215698,3846.582764 1107.298218,3824.721680 1108.274780,3802.991699 C1108.689697,3793.758301 1108.949219,3784.517334 1109.391479,3775.285156 C1109.894043,3764.790039 1110.522095,3754.300781 1111.449463,3742.082275 C1111.866699,3732.097900 1111.930176,3723.840332 1112.036987,3713.921387 C1113.302979,3704.409180 1115.237305,3696.593262 1115.619995,3688.701904 C1116.971436,3660.836182 1116.184204,3632.999268 1119.078369,3605.040039 C1122.282715,3574.085449 1119.163818,3542.565430 1123.705566,3509.802246 C1123.492188,3499.974121 1123.419800,3491.859131 1123.584961,3481.916748 C1125.118530,3456.890137 1126.536255,3433.697021 1127.677856,3410.490234 C1128.917480,3385.291748 1128.571167,3360.105469 1130.961548,3334.849854 C1133.959229,3303.176514 1132.253784,3271.159180 1135.346680,3239.310791 C1137.974487,3212.253418 1136.902466,3184.958496 1138.971558,3157.714844 C1142.541748,3110.706299 1142.724365,3063.439453 1144.300049,3016.280273 C1144.522217,3009.628906 1143.659546,3002.796143 1144.889038,2996.350586 C1148.917236,2975.232178 1147.619141,2953.951172 1147.894531,2932.708984 C1149.007690,2915.416748 1150.508301,2898.139648 1151.169312,2880.830078 C1154.755615,2786.910889 1157.726074,2692.965088 1161.968262,2599.076660 C1162.716553,2582.511230 1157.003296,2572.800781 1143.174927,2565.548584 C1129.136230,2558.185791 1115.485474,2550.110107 1099.127563,2544.885742 C1088.605591,2569.115479 1083.578979,2593.606934 1079.636963,2618.474365 C1075.632690,2643.733887 1076.978638,2668.765625 1082.379761,2693.397461 C1061.091431,2701.616943 1035.809082,2702.675293 1017.266907,2696.293701 C1014.547058,2684.325928 1018.625366,2672.631104 1020.603088,2661.051270 C1031.323975,2598.280762 1050.171387,2538.067139 1080.187988,2481.695068 C1109.076294,2427.442139 1146.269897,2380.134521 1198.305176,2344.002930 C1199.549072,2343.531738 1199.381470,2343.362061 1199.381470,2343.362061 z"/>
  <path fill="#CE6E53" opacity="1.000000" stroke="none" d="M 1405.131 6413.268 C 1397.907 6420.058 1394.713 6421.249 1385.742 6422.976 C 1362.096 6427.53 1338.341 6428.299 1314.207 6425.662 C 1278.306 6421.738 1243.287 6414.263 1208.816 6403.806 C 1204.358 6402.453 1199.866 6401.168 1195.505 6399.546 C 1178.419 6393.19 1172.29 6380.646 1177.555 6363.104 C 1183.376 6343.708 1201.988 6329.582 1224.028 6328.026 C 1243.278 6326.666 1262.611 6326.142 1281.783 6324.085 C 1334.94 6318.383 1386.852 6307.151 1436.695 6287.309 C 1479.459 6270.284 1514.142 6243.5 1538.102 6203.707 C 1544.283 6193.441 1550.885 6183.375 1556.301 6172.713 C 1566.849 6151.95 1576.696 6130.831 1588.884 6109.288 C 1602.022 6114.855 1756.808 6112.389 1764.489 6120.625 C 1774.179 6131.017 1798.952 6322.623 1798.733 6339.949 C 1798.693 6343.071 1806.941 6399.278 1787.104 6406.957 C 1755.578 6415.937 1701.27 6402.707 1688.266 6400.351 C 1653.761 6394.102 1610.744 6367.083 1575.808 6363.642 C 1560.708 6362.154 1548.616 6361.425 1533.55 6359.448 C 1519.546 6357.609 1499.995 6366.652 1486.852 6372.628 C 1461.346 6384.225 1448.637 6387.3 1425.702 6403.376 C 1422.019 6405.958 1405.618 6409.137 1405.131 6413.268 Z"/>
  <path fill="#CE6E53" opacity="1.000000" stroke="none" d="M 1111.096 3743.809 C 1110.522 3754.301 1109.894 3764.79 1109.391 3775.285 C 1108.949 3784.517 1108.69 3793.758 1108.275 3802.992 C 1107.298 3824.722 1109.216 3846.583 1104.785 3868.165 C 1102.927 3877.218 1106.117 3884.65 1113.105 3891.124 C 1120.111 3897.614 1177.636 3953.684 1178.168 3962.23 C 1178.332 3964.86 1178.882 3967.464 1179.225 3970.085 C 1183.626 4003.712 1180.542 4035.977 1162.612 4065.798 C 1154.449 4079.375 1146.959 4093.356 1137.18 4106.904 C 1132.623 4104.936 1136.858 4111.664 1136.509 4114.239 C 1133.134 4117.837 1129.908 4120.124 1127.277 4122.961 C 1117.031 4134.009 1106.276 4144.446 1092.841 4153.729 C 1045.277 4161.126 1007.622 4142.418 974.644 4111.594 C 958.019 4096.054 944.701 4077.75 933.289 4058.077 C 917.508 4030.876 906.356 4001.78 897.684 3971.639 C 895.754 3964.932 895.938 3958.486 898.407 3952.103 C 903.438 3939.091 907.966 3925.832 913.876 3913.225 C 924.884 3889.744 936.867 3866.723 948.153 3843.369 C 951.892 3835.632 954.738 3827.462 959.495 3817.754 C 966.449 3813.8 972.012 3811.819 977.334 3809.323 C 997.557 3799.839 1017.868 3790.521 1037.826 3780.504 C 1056.052 3771.355 1073.863 3761.382 1093.114 3751.353 C 1099.945 3748.559 1105.52 3746.184 1111.096 3743.809"/>
  <path fill="#000001" opacity="1.000000" stroke="none" d="M 1643.477 1800.952 C 1649.994 1799.556 1653.465 1803.853 1657.234 1807.531 C 1670.52 1820.497 1684.407 1832.922 1696.846 1846.656 C 1706.972 1857.835 1719.298 1862.022 1733.459 1863.661 C 1765.599 1867.382 1797.676 1871.658 1829.841 1875.138 C 1850.206 1877.342 1870.684 1878.501 1891.109 1880.163 C 1904.926 1881.288 1918.737 1882.472 1936.146 1883.717 C 1966.996 1883.959 1994.253 1884.018 2021.507 1884.303 C 2037.855 1884.475 2049.581 1877.2 2056.721 1862.746 C 2064.661 1846.671 2073.148 1830.771 2079.725 1814.135 C 2096.806 1770.928 2112.802 1727.303 2125.463 1682.534 C 2126.237 1679.798 2128.436 1677.465 2131.573 1672.317 C 2133.185 1694.388 2127.969 1712.466 2126.013 1730.809 C 2123.56 1753.822 2119.78 1776.694 2116.157 1801.212 C 2114.535 1807.933 2113.042 1813.02 2112.169 1818.211 C 2107.13 1848.2 2101.734 1878.085 2091.938 1907.001 C 2082.697 1934.275 2081.479 1928.559 2058.935 1935.357 C 2057.688 1935.733 2140.89 2038.811 2139.568 2038.871 C 2113.814 2040.036 2003.688 1941.186 1977.746 1939.991 C 1958.552 1939.106 1939.289 1939.768 1920.057 1939.65 C 1914.759 1939.617 1909.237 1940.153 1904.209 1938.881 C 1887.8 1934.73 1871.282 1936.397 1854.76 1936.851 C 1817.536 1934.415 1780.305 1932.08 1743.095 1929.449 C 1736.355 1928.972 1731.966 1932.175 1727.224 1936.165 C 1707.355 1952.885 1572.683 2045.573 1518.309 2061.421 C 1467.544 2076.216 1416.31 2080.347 1364.375 2068.064 C 1361.142 2067.3 1357.899 2066.527 1354.742 2065.506 C 1352.869 2064.9 1351.156 2063.8 1348.696 2062.588 C 1348.696 2046.289 1348.696 2029.758 1348.696 2012.211 C 1354.682 2010.676 1360.396 2009.146 1366.141 2007.746 C 1415.504 1995.719 1463.164 1979.051 1508.102 1955.141 C 1540.042 1938.146 1569.693 1917.882 1594.557 1891.326 C 1615.255 1869.22 1632.224 1844.743 1641.24 1812.605 C 1642.4 1807.884 1642.517 1805.52 1642.635 1803.156 C 1642.635 1803.156 1643.121 1801.656 1643.477 1800.952 Z" style=""/>
  <path fill="#D71055" opacity="1.000000" stroke="none" d="M 1767.041 3471.305 C 1717.35 3651.365 1610.247 4175.574 1591.633 4216.646 C 1571.876 4260.242 1548.311 4301.848 1519.211 4340.067 C 1505.501 4358.074 1490.661 4375.072 1472.676 4389.007 C 1469.077 4391.796 1464.855 4393.782 1459.373 4396.142 C 1542.731 4074.002 1627.636 3751.859 1714.618 3428.666 C 1732.994 3431.26 1749.034 3436.437 1766.51 3437.74 C 1768 3445.307 1766.838 3451.675 1770.635 3458.173 C 1769.006 3463.574 1768.102 3467.461 1767.041 3471.305 Z"/>
  <path fill="#CE6E53" opacity="1.000000" stroke="none" d=" M1146.865234,2933.455078 C1147.619141,2953.951172 1148.917236,2975.232178 1144.889038,2996.350586 C1143.659546,3002.796143 1144.522217,3009.628906 1144.300049,3016.280273 C1142.724365,3063.439453 1142.541748,3110.706299 1138.971558,3157.714844 C1136.902466,3184.958496 1137.974487,3212.253418 1135.346680,3239.310791 C1132.253784,3271.159180 1133.959229,3303.176514 1130.961548,3334.849854 C1128.571167,3360.105469 1128.917480,3385.291748 1127.677856,3410.490234 C1126.536255,3433.697021 1125.118530,3456.890137 1122.043091,3481.957520 C1113.403809,3484.589844 1105.949585,3481.914062 1098.189941,3487.414062 C1079.484741,3488.548096 1062.784912,3490.743896 1048.001221,3500.198730 C1047.967651,3500.090332 1048.191528,3500.058350 1046.710327,3500.030273 C1040.395996,3500.208252 1035.324707,3499.655518 1031.908569,3504.056152 C1031.963745,3503.912354 1032.260986,3503.994629 1030.901733,3504.096191 C1026.281250,3505.426514 1023.019897,3506.655518 1018.482483,3508.328613 C1010.759216,3511.214111 1004.312134,3513.656006 996.313599,3516.121094 C993.727905,3516.141602 992.693604,3516.138672 991.659302,3516.135986 C992.131958,3500.834717 992.343750,3485.520020 993.126831,3470.234619 C995.341248,3427.008057 997.910706,3383.799561 1000.115295,3340.572510 C1002.862671,3286.702393 1005.057678,3232.783203 1012.427673,3179.284180 C1016.064087,3152.886475 1021.277161,3126.806396 1030.875366,3101.742676 C1037.402710,3084.697998 1046.447998,3069.472900 1059.157715,3056.293945 C1064.197632,3051.068115 1068.517456,3045.076172 1072.698853,3039.106445 C1097.154663,3004.191895 1121.471924,2969.180176 1146.865234,2933.455078 z"/>
  <path fill="#054672" opacity="1.000000" stroke="none" d="M 1251.419 2797.522 C 1273.74 2767.961 1297.208 2739.263 1324.151 2713.869 C 1340.387 2698.567 1352.702 2681.119 1362.516 2661.484 C 1365.171 2656.172 1373.476 2643.393 1378.127 2637.743 C 1396.829 2662.252 1407.353 2694.725 1424.429 2719.24 C 1462.017 2773.204 1526.369 2833.106 1573.363 2880.14 C 1568.641 2898.67 1438.532 3055.868 1430.688 3047.333 C 1394.674 3015.481 1257.336 2819.791 1251.419 2797.522 Z"/>
  <path opacity="1.000000" stroke="none" d="M 1167.931 3483.466 C 1168.084 3465.525 1166.712 3447.41 1168.734 3429.683 C 1172.134 3399.881 1169.988 3369.895 1172.875 3340.265 C 1175.719 3311.082 1173.921 3281.799 1176.819 3252.829 C 1179.803 3222.992 1177.829 3193.019 1180.883 3163.409 C 1183.963 3133.556 1181.865 3103.615 1184.784 3073.973 C 1187.787 3043.477 1185.975 3012.864 1188.806 2982.554 C 1191.965 2948.735 1191.445 2914.937 1192.56 2881.131 C 1192.69 2877.198 1193.821 2873.298 1194.808 2867.976 C 1206.064 2853.272 1217 2839.976 1229.791 2827.283 C 1237.067 2838.725 1357.725 2976.173 1384.678 2988.001 C 1392.506 2991.436 1428.838 3036.766 1436.983 3039.479 C 1430.122 3047.246 1416.595 3054.471 1410.91 3059.919 C 1400.667 3069.736 1273.856 3241.941 1266.744 3271.497 C 1264.385 3281.301 1192.192 3473.305 1191.498 3483.438 C 1190.532 3483.556 1167.931 3483.466 1167.931 3483.466 Z" style="fill: rgb(206, 110, 83);"/>
  <path opacity="1.000000" stroke="none" d="M 1854.722 1938.504 C 1871.282 1936.397 1887.8 1934.73 1904.209 1938.881 C 1909.237 1940.153 1914.759 1939.617 1920.057 1939.65 C 1939.289 1939.768 1958.552 1939.106 1977.746 1939.991 C 2003.688 1941.186 2029.234 1936.954 2054.988 1935.789 C 2056.31 1935.729 2057.688 1935.733 2058.935 1935.357 C 2081.479 1928.559 2082.697 1934.275 2091.938 1907.001 C 2101.734 1878.085 2107.13 1848.2 2112.169 1818.211 C 2113.042 1813.02 2114.535 1807.933 2117.68 1801.352 C 2127.767 1801.318 2135.915 1802.73 2144.063 1804.141 C 2145.289 1809.209 2146.004 1814.468 2147.822 1819.314 C 2164.973 1865.037 2182.293 1910.698 2199.618 1956.356 C 2202.192 1963.141 2205.049 1969.819 2206.81 1978.588 C 2175.867 2000.285 2081.36 2076.133 2049.186 2092.05 C 2008.535 2112.16 1862.959 2092.608 1848.226 2085.807 C 1848.957 2062.662 1851.432 2028.735 1852.23 2005.593 C 1852.982 1983.779 1853.861 1961.969 1854.722 1938.504 Z" style="fill: rgb(206, 110, 83);"/>
  <path fill="#054672" opacity="1.000000" stroke="none" d=" M2495.883301,6103.835449 C2483.933838,6098.797852 2472.139404,6093.513184 2462.208496,6082.565430 C2462.231934,6073.164062 2462.797119,6064.514160 2464.702637,6056.170410 C2466.589355,6047.908691 2464.995605,6040.528809 2462.256348,6032.880371 C2443.020020,5979.166504 2423.935547,5925.397949 2404.850098,5870.198730 C2420.137451,5868.475098 2435.376709,5868.205566 2450.616211,5867.921387 C2486.425537,5867.253418 2522.074219,5864.888184 2558.679932,5857.041992 C2579.820068,5854.540527 2597.480957,5847.428223 2614.713867,5835.107422 C2616.848145,5863.770020 2617.922607,5893.017578 2618.332275,5922.275391 C2618.975342,5968.197754 2619.170166,6014.125488 2618.099609,6062.424316 C2612.165771,6067.650879 2607.790039,6070.682617 2603.193115,6073.330078 C2569.979980,6092.457520 2535.581055,6107.489258 2495.883301,6103.835449 z"/>
  <path fill="#054672" opacity="1.000000" stroke="none" d="M 1625.313 6128.784 C 1614.226 6122.645 1600.243 6120.194 1587.943 6113.448 C 1592.757 6096.012 1600.575 6073.851 1606.583 6057.017 C 1609.952 6047.581 1611.069 6038.543 1609 6028.045 C 1599.246 5978.564 1590.76 5928.832 1581.833 5877.593 C 1598.068 5879.328 1614.253 5882.859 1630.523 5885.95 C 1661.81 5891.894 1693.123 5897.71 1724.477 5903.291 C 1730.981 5904.448 1737.71 5904.345 1746.079 5904.667 C 1758.561 5909.335 1770.037 5907.117 1782.948 5908.126 C 1781.099 5933.267 1777.613 5958.3 1773.844 5983.29 C 1770.667 6004.359 1767.645 6025.473 1763.598 6046.381 C 1761.5 6057.221 1762.842 6067.52 1764.702 6077.981 C 1767.265 6092.397 1768.795 6112.718 1769.798 6129.309 C 1748.262 6136.802 1729.015 6132.382 1708.621 6133.565 C 1694.864 6134.363 1639.651 6130.922 1625.313 6128.784 Z"/>
  <path fill="#054672" opacity="1.000000" stroke="none" d="M 2797.198 2741.273 C 2799.275 2746.086 2801.644 2750.796 2803.384 2755.728 C 2822.269 2809.231 2842.318 2870.356 2860.877 2926.574 C 2849.307 2941.464 2715.277 3061.552 2710.319 3066.091 C 2700.464 3074.125 2616.112 3057.76 2599.768 3057.203 C 2598.436 3048.374 2575.557 2974.095 2567.836 2944.804 C 2561.983 2922.597 2549.015 2890.871 2533.651 2872.164 C 2538.406 2869.828 2738.554 2811.35 2780.766 2766.048 C 2787.43 2758.896 2791.778 2749.585 2797.198 2741.273 Z"/>
  <path fill="#054672" opacity="1.000000" stroke="none" d=" M1123.846558,3511.515137 C1119.163818,3542.565430 1122.282715,3574.085449 1119.078369,3605.040039 C1116.184204,3632.999268 1116.971436,3660.836182 1115.619995,3688.701904 C1115.237305,3696.593262 1113.302979,3704.409180 1110.669800,3714.171875 C1102.126099,3719.948730 1094.992920,3723.813477 1086.427979,3727.879395 C1066.174316,3737.619385 1047.299561,3747.056641 1028.579590,3756.791504 C1025.262451,3758.516602 1022.589722,3761.480957 1019.758545,3763.940186 C1019.897766,3764.007324 1020.038574,3763.732422 1018.586060,3763.620605 C1014.695068,3765.020508 1012.256714,3766.532471 1008.536682,3768.245605 C996.695923,3774.165283 986.136841,3779.883789 974.232788,3786.197998 C970.142761,3787.869385 967.397888,3788.945068 964.653015,3790.020996 C966.011658,3776.150146 967.405212,3762.282715 968.722839,3748.407959 C974.064270,3692.166016 979.373657,3635.921631 984.717285,3579.679932 C985.660522,3569.752686 986.711243,3559.835205 989.587036,3548.214844 C1030.193359,3540.708008 1066.496460,3526.163086 1105.281982,3515.368652 C1112.446045,3514.141357 1118.146362,3512.828369 1123.846558,3511.515137 z"/>
  <path fill="#054672" opacity="1.000000" stroke="none" d="M 2887.954 3807.948 C 2886.519 3823.072 2885.261 3838.214 2883.615 3853.315 C 2878.957 3896.047 2874.052 3938.753 2869.431 3981.489 C 2867.653 3997.927 2866.38 4014.42 2862.93 4032.273 C 2855.663 4032.704 2850.342 4031.751 2843.964 4029.933 C 2839.302 4028.679 2835.698 4028.29 2830.861 4027.012 C 2806.445 4021.267 2762.517 4041.031 2739.3 4034.422 C 2739.139 4026.699 2731.597 3939.514 2726.09 3922.011 C 2725.326 3919.58 2718.547 3804.697 2720.38 3788.098 C 2731.975 3789.448 2771.419 3797.343 2781.277 3798.479 C 2816.751 3802.567 2852.009 3809.15 2887.954 3807.948 Z"/>
  <path opacity="1.000000" stroke="none" d="M 1848.895 2075.619 C 1864.756 2081.827 1880.724 2082.868 1896.448 2083.789 C 1913.659 2084.796 1931.01 2084.609 1948.24 2083.742 C 1960.719 2083.114 1973.319 2081.476 1985.483 2078.647 C 2029.482 2068.414 2072.044 2054.092 2112.695 2033.981 C 2144.869 2018.064 2176.302 1994.629 2207.568 1974.345 C 2216.057 1983.553 2224.812 2006.281 2225.94 2020.284 C 2219.523 2026.528 2210.754 2024.01 2206.083 2028.641 C 2174.177 2060.273 2137.606 2084.864 2096.154 2102.228 C 2093.173 2103.477 2090.568 2105.628 2086.244 2107.548 C 2078.991 2109.404 2073.139 2110.692 2067.6 2112.803 C 2045.77 2121.121 2022.76 2125.249 1999.908 2127.154 C 1954.89 2130.906 1909.985 2128.423 1866.309 2114.986 C 1855 2111.506 1843.664 2108.118 1832.34 2104.688 C 1832.34 2104.688 1831.837 2103.913 1831.52 2103.578 C 1836.724 2094.233 1842.245 2085.222 1848.895 2075.619 Z" style="fill: rgb(238, 143, 6);"/>
  <path opacity="1.000000" stroke="none" d="M 1760.961 2163.092 C 1786.287 2178.991 1815.177 2200.83 1839.24 2217.31 C 1867.501 2236.665 1897.999 2250.985 1931.572 2257.9 C 2010.455 2274.149 2083.128 2260.68 2147.96 2211.289 C 2151.647 2208.48 2155.207 2205.506 2160.459 2201.411 C 2162.091 2200.214 2198.403 2173.819 2198.938 2175.047 C 2202.944 2184.324 2172.056 2218.804 2175.185 2227.862 C 2174.601 2229.539 2203.434 2206.419 2203.193 2207.088 C 2192.632 2213.935 2153.104 2244.742 2142.415 2251.384 C 2109.746 2271.686 2074.085 2283.399 2036.013 2288.174 C 1950.861 2298.852 1876.256 2273.177 1808.883 2222.457 C 1799.337 2215.271 1790.11 2207.603 1780.152 2201.043 C 1770.773 2194.865 1755.233 2188.059 1744.201 2181.842 C 1748.321 2176.575 1754.524 2168.005 1760.961 2163.092 Z" style="fill: rgb(238, 143, 6);"/>
  <path fill="#EE8F06" opacity="1.000000" stroke="none" d="M 2633.099 2869.59 C 2619.293 2871.263 2541.084 2882.637 2540.152 2881.757 C 2528.692 2870.943 2514.505 2850.094 2521.105 2835.093 C 2521.603 2833.96 2595.685 2833.495 2595.868 2832.223 C 2627.566 2825.767 2656.667 2812.947 2682.746 2794.121 C 2698.816 2782.521 2757.766 2705.136 2775.804 2692.234 C 2788.245 2696.963 2796.854 2710.085 2797.056 2722.053 C 2797.143 2727.222 2797.091 2732.394 2797.15 2739.419 C 2791.778 2749.585 2787.43 2758.896 2780.766 2766.048 C 2738.554 2811.35 2694.64 2862.132 2633.099 2869.59 Z"/>
  <path fill="#EE8F06" opacity="1.000000" stroke="none" d="M 1543.848 2867.572 C 1496.219 2821.684 1462.017 2773.204 1424.429 2719.24 C 1407.353 2694.725 1391.066 2669.661 1373.27 2644.077 C 1365.379 2627.747 1375.797 2613.721 1387.557 2603.857 C 1396.233 2614.126 1402.151 2629.113 1409.632 2640.039 C 1414.474 2647.111 1524.088 2774.627 1550.178 2804.768 C 1554.081 2809.277 1557.686 2814.044 1562.693 2820.567 C 1564.099 2824.05 1589.762 2854.473 1589.745 2857.859 C 1590.838 2871.124 1571.27 2886.121 1567.763 2888.916 C 1566.926 2888.919 1543.848 2867.572 1543.848 2867.572 Z"/>
  <path fill="#EE8F06" opacity="1.000000" stroke="none" d="M 1247.907 2860.399 C 1242.487 2849.562 1237.067 2838.725 1230.829 2826.384 C 1230.346 2811.937 1238.984 2804.889 1250.05 2798.058 C 1257.336 2819.791 1404.124 3000.404 1439.967 3033.808 C 1440.594 3047.401 1425.397 3053.05 1419.313 3061.676 C 1403.627 3058.61 1383.943 3036.653 1373.665 3027.442 C 1336.506 2994.142 1306.239 2955.192 1280.007 2912.851 C 1273.865 2902.936 1270.154 2891.126 1260.076 2883.848 C 1260.076 2883.848 1259.984 2884.001 1260 2882.784 C 1258.682 2879.671 1257.349 2877.775 1256.015 2875.879 C 1256.015 2875.879 1255.968 2876.018 1255.941 2874.824 C 1254.595 2871.738 1253.275 2869.845 1251.954 2867.952 C 1251.954 2867.952 1251.971 2868.02 1251.896 2866.876 C 1250.517 2863.955 1249.212 2862.177 1247.907 2860.399 Z"/>
  <path opacity="1.000000" stroke="none" d="M 2663.901 3059.69 C 2664.778 3058.866 2665.756 3058.189 2667.464 3057.02 C 2684.394 3055.231 2698.778 3048.22 2713.088 3041.267 C 2738.955 3028.696 2762.154 3011.998 2784.381 2993.916 C 2793.149 2986.783 2848.043 2933.877 2860.009 2920.424 C 2871.209 2924.475 2869.419 2934.342 2869.526 2945 C 2867.953 2948.688 2866.496 2950.842 2863.565 2954.722 C 2861.345 2957.627 2860.598 2958.807 2859.851 2959.987 C 2859.851 2959.987 2859.981 2959.977 2859.943 2959.912 C 2854.505 2964.72 2848.909 2969.393 2843.738 2974.498 C 2821.966 2995.991 2801.261 3018.614 2776.642 3037.06 C 2747.706 3058.74 2717.389 3077.766 2681.355 3085.26 C 2672.995 3086.998 2623.829 3089.623 2613.462 3088.899 C 2610.823 3080.503 2593.652 3058.307 2598.859 3053.496 C 2601.15 3051.379 2662.056 3062.289 2663.901 3059.69 Z" style="fill: rgb(238, 143, 6);"/>
  <path fill="#CE6E53" opacity="1.000000" stroke="none" d="M 1139.82 3897.065 C 1141.46 3851.333 1150.899 3812.296 1152.582 3766.565 C 1152.678 3763.935 1153.228 3761.322 1154.51 3757.366 C 1161.84 3758.466 1166.862 3761.832 1169.025 3769.137 C 1179.159 3803.36 1190.448 3837.262 1195.237 3875.195 C 1188.869 3893.838 1186.801 3911.261 1173.299 3923.277 C 1164.025 3921.682 1138.319 3934.478 1129.093 3936.126 C 1129.093 3936.126 1083.284 3884.758 1083.294 3883.206 C 1083.174 3878.609 1139.949 3900.11 1139.82 3897.065 Z"/>
  <path fill="#EE8F06" opacity="1.000000" stroke="none" d="M 2750.014 3794.448 C 2746.278 3793.653 2720.603 3796.053 2717.557 3793.306 C 2715.825 3782.026 2709.424 3766.456 2717.844 3760.205 C 2736.179 3761.025 2785.305 3762.739 2803.458 3767.434 C 2809.046 3768.879 2815.27 3767.682 2821.165 3768.159 C 2829.636 3768.844 2838.052 3770.297 2846.528 3770.804 C 2860.304 3771.629 2874.109 3769.709 2889.715 3770.397 C 2895.91 3781.813 2896.835 3799.63 2888.86 3811.362 C 2852.009 3813.641 2816.751 3802.567 2781.277 3798.479"/>
  <path fill="#B94B39" opacity="1.000000" stroke="none" d=" M1669.806152,1668.512451 C1673.470459,1669.023071 1677.818359,1669.805908 1678.807495,1672.061523 C1688.619873,1694.439209 1698.003906,1717.009399 1707.123169,1739.680298 C1708.211792,1742.386841 1707.002197,1746.017700 1706.839355,1749.632568 C1689.135254,1755.448486 1672.444580,1750.569458 1654.011475,1747.928711 C1641.019043,1739.730835 1641.019043,1739.730835 1637.933716,1721.579956 C1639.743774,1720.274536 1641.723022,1718.612549 1643.922241,1717.326782 C1646.116455,1716.043823 1648.531006,1715.137817 1651.805420,1713.624390 C1650.541626,1705.701782 1649.334595,1698.135864 1647.926758,1689.310791 C1654.768066,1682.847778 1661.849487,1676.157959 1669.806152,1668.512451 z"/>
  <path fill="#EE8F06" opacity="1.000000" stroke="none" d="M 1123.662 3513.678 C 1086.34 3524.558 1030.193 3545.562 989.926 3551.301 C 979.989 3541.386 983.5 3527.332 990.785 3517.212 C 992.694 3516.139 1103.131 3476.432 1122.435 3476.787 C 1129.354 3486.122 1123.561 3505.27 1123.662 3513.678 Z"/>
  <path fill="#EE8F06" opacity="1.000000" stroke="none" d="M 2849.82 4059.676 C 2833.814 4053.411 2818.058 4051.931 2802.898 4048.119 C 2787.012 4044.125 2752.927 4041.802 2735.529 4036.05 C 2735.48 4027.248 2737.455 4010.936 2739.041 4010.38 C 2763.162 4014.865 2856.151 4029.777 2863.06 4031.094 C 2871.011 4039.102 2867.072 4049.713 2863.621 4058.673 C 2859.085 4059.876 2855.181 4059.802 2849.82 4059.676 Z"/>
  <path fill="#EE8F06" opacity="1.000000" stroke="none" d="M 963.771 3791.043 C 967.398 3788.945 1089.16 3723.013 1110.028 3714.694 C 1116.171 3722.584 1109.781 3736.93 1109.968 3744.11 C 1091.973 3753.72 1056.052 3771.355 1037.826 3780.504 C 1017.868 3790.521 997.557 3799.839 977.334 3809.323 C 972.012 3811.819 966.449 3813.8 959.683 3816.196 C 952.381 3806.878 957 3799.354 963.771 3791.043 Z"/>
  <path opacity="1.000000" stroke="none" d="M 1165.239 3564.219 C 1164.287 3546.907 1165.347 3519.606 1167.065 3499.534 C 1174.065 3498.934 1180.927 3501.013 1186.226 3502.049 C 1180.423 3519.79 1172.012 3545.353 1165.239 3564.219 Z" style="fill: rgb(5, 70, 114);"/>
  <path opacity="1.000000" stroke="none" d=" M1184.972412,3509.094238 C1178.320435,3508.835205 1173.021606,3507.799316 1166.142822,3506.416992 C1165.145630,3499.355225 1165.728394,3492.639893 1167.120850,3484.695312 C1167.930786,3483.465576 1169.877197,3483.556152 1170.843262,3483.437988 C1176.971191,3483.706299 1182.133179,3484.093018 1188.826782,3484.620605 C1189.804077,3492.749023 1191.438599,3501.111084 1184.972412,3509.094238 z" style="fill: rgb(238, 143, 6);"/>
  <path fill="#D9A9AB" opacity="1.000000" stroke="none" d=" M2751.620117,1401.263184 C2755.868408,1405.574097 2759.923340,1411.284790 2764.081299,1418.314819 C2763.210693,1419.682495 2762.237061,1419.730591 2759.799316,1419.807739 C2753.801025,1415.009644 2751.705322,1409.201660 2751.620117,1401.263184 z"/>
  <path fill="#E7A588" opacity="1.000000" stroke="none" d=" M1641.790283,1804.040771 C1642.517334,1805.520142 1642.399902,1807.883667 1641.442627,1811.114014 C1640.717285,1809.628906 1640.831665,1807.276978 1641.790283,1804.040771 z"/>
  <path fill="#584456" opacity="1.000000" stroke="none" d=" M1199.615112,2343.630859 C1200.120850,2343.341309 1200.523804,2342.890381 1201.020142,2342.597656 C1201.190674,2342.497314 1201.594238,2342.791748 1201.891235,2342.905518 C1201.505127,2343.203857 1201.119141,2343.501953 1200.057251,2343.581055 C1199.381470,2343.362061 1199.549072,2343.531738 1199.615112,2343.630859 z"/>
  <path opacity="1.000000" stroke="none" d=" M2164.576660,2201.478027 C2166.962402,2196.702881 2169.540771,2192.793457 2172.857910,2189.667480 C2197.022461,2166.893066 2216.820557,2140.317871 2238.111572,2115.046143 C2250.883301,2099.886719 2263.457031,2084.559814 2276.963379,2068.000977 C2289.647217,2069.359375 2296.824463,2079.098633 2306.845947,2086.562988 C2291.729492,2104.845215 2275.447998,2121.526123 2260.416504,2139.266357 C2234.565186,2169.776123 2208.632568,2200.132080 2176.777588,2226.475830 C2172.055908,2218.804199 2168.583496,2210.755127 2164.576660,2201.478027 z" style="fill: rgb(238, 143, 6);"/>
  <path fill="#D9A9AB" opacity="1.000000" stroke="none" d=" M2748.620117,1396.868896 C2749.687012,1396.299438 2750.659668,1397.154541 2751.685547,1399.307373 C2751.009521,1399.445801 2749.938477,1398.675171 2748.620117,1396.868896 z"/>
  <path fill="#054672" opacity="1.000000" stroke="none" d="M 2225.878 3282.407 C 2225.864 3304.181 2220.017 3453.116 2217.969 3466.257 C 2135.283 3457.859 2001.947 3459.999 1921.069 3447.906 C 1920.407 3422.442 1724.716 3424.797 1724.197 3401.102 C 1724.402 3400.432 1726.727 3375.393 1728.767 3373.533 C 1734.48 3371.494 1943.871 3337.655 1947.778 3336.973 C 2010.951 3325.957 2074.132 3314.99 2137.308 3303.986 C 2152.911 3301.269 2210.283 3285.174 2225.878 3282.407 Z"/>
  <path fill="#EE8F06" opacity="1.000000" stroke="none" d="M 2184.73 3295.057 C 2168.5 3298.46 2152.911 3301.269 2137.308 3303.986 C 2074.132 3314.99 2010.951 3325.957 1947.778 3336.973 C 1943.871 3337.655 1731.301 3371.494 1725.885 3372.524 C 1723.803 3361.597 1721.141 3355.785 1720.546 3343.63 C 1724.712 3342.004 1938.925 3301.847 1942.538 3301.243 C 1980.816 3294.845 2124.542 3271.167 2152.96 3266.666 C 2160.714 3265.438 2168.481 3264.29 2177.915 3262.575 C 2180.224 3262.322 2225.514 3251.664 2227.165 3252.156 C 2230.149 3260.783 2225.899 3273.403 2224.479 3284.053 C 2223.809 3286.709 2186.464 3293.871 2184.73 3295.057 Z"/>
  <path fill="#E4B4A9" opacity="1.000000" stroke="none" d=" M2488.720459,4484.891602 C2489.536865,4484.234375 2490.890869,4484.579590 2492.891602,4485.784668 C2492.111572,4486.394531 2490.684814,4486.144531 2488.720459,4484.891602 z"/>
  <path fill="#EE8F06" opacity="1.000000" stroke="none" d="M 1933.683 3463.777 C 1687.528 3474.567 1695.99 3422.399 1728.817 3403.453 C 1809.953 3411.885 2095.167 3439.161 2177.653 3449.514 C 2179.405 3449.543 2217.873 3449.87 2218.142 3450.436 C 2217.25 3461.975 2232.098 3477.922 2226.067 3489.975 C 2208.123 3491.822 2141.498 3487.481 2124.287 3485.186 C 2100.675 3482.038 2076.784 3480.976 2049.899 3478.26 C 2026.042 3474.531 2005.335 3471.255 1984.541 3468.692 C 1967.643 3466.609 1950.639 3465.383 1933.683 3463.777"/>
  <path fill="#B94B39" opacity="1.000000" stroke="none" d=" M2491.014648,2535.967285 C2490.357422,2536.407715 2489.696777,2536.192627 2489.035889,2535.977539 C2489.694336,2535.755615 2490.352539,2535.533691 2491.014648,2535.967285 z"/>
  <path fill="#BB5138" opacity="1.000000" stroke="none" d=" M2860.837402,2959.528809 C2860.598145,2958.807129 2861.345215,2957.627441 2863.009766,2955.893066 C2863.226074,2956.582520 2862.524658,2957.826660 2860.837402,2959.528809 z"/>
  <path fill="#080606" opacity="1.000000" stroke="none" d=" M2032.347900,1447.536621 C2026.954712,1448.475220 2023.942383,1444.527710 2020.524902,1441.616455 C2007.494873,1430.517456 1994.260132,1419.633179 1981.674683,1408.046631 C1973.016235,1400.075562 1963.741821,1397.988892 1952.647827,1401.108276 C1942.519897,1403.956055 1932.246216,1406.285645 1920.775024,1409.598877 C1897.026245,1416.186279 1874.539307,1422.018555 1851.689575,1427.944824 C1843.674194,1424.578491 1837.843506,1418.042847 1831.360840,1412.446167 C1824.899780,1406.868286 1818.695435,1400.993042 1811.423096,1394.379395 C1817.960449,1389.044067 1824.581299,1387.774536 1830.711792,1389.251099 C1846.366089,1393.021729 1861.062866,1388.714966 1875.897827,1385.377563 C1905.730469,1378.665771 1935.496948,1371.660034 1966.915527,1365.071533 C1968.490723,1366.189575 1968.815308,1366.817505 1970.045898,1367.322754 C1987.470581,1389.230469 2004.364136,1411.065674 2021.255371,1432.902710 C2024.473022,1437.062500 2027.681763,1441.229614 2031.572998,1446.545166 C2032.251343,1447.697021 2032.347900,1447.536621 2032.347900,1447.536621 z"/>
  <path fill="#564053" opacity="1.000000" stroke="none" d=" M2667.530762,1272.430664 C2666.837158,1271.792603 2666.463867,1270.844849 2666.090576,1269.897095 C2666.642578,1269.995728 2667.194336,1270.094238 2668.106689,1270.835083 C2668.467041,1271.477295 2667.850830,1272.120850 2667.530762,1272.430664 z"/>
  <path fill="#FFFFFF" opacity="1.000000" stroke="none" d=" M2868.198730,4716.245605 C2866.492920,4720.223145 2865.062744,4719.918457 2865.256104,4714.887207 C2866.259521,4714.512695 2866.828857,4714.991211 2868.198730,4716.245605 z"/>
  <path fill="#FDFCFC" opacity="1.000000" stroke="none" d="M 1919.338 1519.192 C 1934.98 1526.361 1948.318 1542.859 1964.073 1550.069 C 1959.971 1552.211 1950.677 1565.54 1947.376 1566.202 C 1931.694 1569.349 1828.015 1546.353 1811.211 1543.853 C 1813.987 1534.765 1840.11 1478.213 1842.873 1469.814 C 1843.009 1469.4 1916.761 1518.613 1919.338 1519.192 Z"/>
  <path fill="#080606" opacity="1.000000" stroke="none" d=" M1918.905640,1499.013428 C1943.203857,1525.237427 1970.559814,1543.624878 2005.850342,1548.890381 C2001.775391,1553.192505 1996.855469,1551.705322 1992.449585,1551.995972 C1987.216431,1552.340942 1981.943359,1552.077148 1976.155518,1552.077148 C1963.442627,1565.000610 1948.040894,1573.498047 1929.130737,1578.494873 C1919.361694,1580.027954 1910.782959,1581.059448 1902.176025,1581.424805 C1893.585815,1581.789307 1884.966797,1581.522949 1876.360962,1581.466064 C1866.065063,1581.398071 1857.591553,1578.028442 1849.393921,1571.052856 C1840.429077,1563.424194 1829.318848,1558.342529 1819.286621,1551.927124 C1816.151611,1549.922241 1813.480835,1547.191650 1812.789307,1544.391846 C1827.373047,1543.638916 1839.765015,1543.287354 1852.945801,1542.913452 C1851.207764,1536.723022 1849.316528,1531.727661 1848.484131,1526.561646 C1847.537109,1520.683594 1847.458862,1514.657349 1847.146973,1508.687988 C1846.888550,1503.738281 1848.142944,1498.656372 1846.667603,1490.906006 C1830.792847,1507.073120 1821.855957,1524.638550 1811.292603,1541.014160 C1810.582642,1538.624756 1808.766235,1535.925049 1809.335449,1533.894287 C1814.492554,1515.496216 1819.451660,1496.997925 1825.802246,1478.999390 C1828.581055,1471.123535 1833.726074,1463.739746 1839.105347,1457.210693 C1845.849487,1449.025146 1854.567505,1447.211914 1864.044312,1452.200073 C1872.104858,1456.442871 1879.693970,1462.009766 1886.508911,1468.091797 C1897.332764,1477.751587 1907.338135,1488.328369 1918.905640,1499.013428 M1917.034058,1528.519287 C1915.854126,1528.590576 1913.764404,1528.362671 1913.628052,1528.777222 C1910.865479,1537.176392 1908.327271,1545.649536 1905.551392,1554.738037 C1922.355957,1557.237671 1938.044434,1558.464355 1953.725708,1555.317383 C1957.027466,1554.654785 1959.971436,1552.210693 1964.072754,1550.069336 C1948.317993,1542.858887 1934.073364,1536.339478 1917.034058,1528.519287 z"/>
  <path fill="#EE8F06" opacity="1.000000" stroke="none" d="M 2224.319 2465.07 C 2209.635 2479.807 2191.828 2490.285 2174.082 2500.544 C 2134.77 2523.271 2093.354 2541.107 2048.53 2549.87 C 2034.25 2552.662 2019.78 2554.668 2005.312 2556.258 C 1990.838 2557.85 1976.188 2559.905 1961.736 2559.217 C 1931.932 2557.798 1902.424 2553.823 1873.589 2545.22 C 1849.409 2538.007 1828.997 2525.001 1810.633 2508.266 C 1775.28 2476.047 1740.025 2443.72 1704.7 2411.471 C 1695.386 2402.968 1580.228 2306.877 1570.375 2295.945 C 1575.289 2277.614 1614.495 2279.923 1628.148 2270.232 C 1646.56 2288.472 1741.08 2379.219 1759.375 2397.576 C 1784.295 2422.581 1810.884 2445.646 1839.825 2465.842 C 1870.534 2487.271 1903.394 2504.078 1940.231 2512.917 C 1978.697 2522.146 2016.358 2520.569 2054.133 2509.426 C 2100.777 2495.667 2141.757 2471.576 2179.958 2442.213 C 2192.592 2432.501 2416.025 2166.19 2429.808 2157.341 C 2454.325 2163.386 2462.695 2165.608 2480.07 2171.752 C 2483.762 2173.057 2224.204 2461.147 2224.319 2465.07 Z"/>
  <path fill="#EE8F06" opacity="1.000000" stroke="none" d=" M1456.061035,2702.874023 C1454.316895,2702.280029 1452.722778,2700.426270 1451.467773,2697.295166 C1453.275024,2697.883301 1454.742920,2699.748779 1456.061035,2702.874023 z"/>
  <path fill="#EE8F06" opacity="1.000000" stroke="none" d=" M1439.961914,2682.656738 C1438.296875,2682.215576 1436.548218,2680.342773 1434.333252,2677.236816 C1435.870728,2677.744385 1437.874390,2679.484863 1439.961914,2682.656738 z"/>
  <path fill="#EE8F06" opacity="1.000000" stroke="none" d=" M1427.681641,2667.138672 C1426.649170,2667.564209 1425.324707,2666.962646 1423.916382,2665.206055 C1425.018311,2664.737305 1426.203979,2665.424316 1427.681641,2667.138672 z"/>
  <path fill="#EE8F06" opacity="1.000000" stroke="none" d=" M1431.806396,2672.801025 C1430.734375,2672.946533 1429.464233,2671.773193 1428.017212,2669.297607 C1429.096436,2669.157715 1430.352295,2670.319824 1431.806396,2672.801025 z"/>
  <path fill="#EE8F06" opacity="1.000000" stroke="none" d=" M1443.719238,2687.117188 C1442.855957,2687.419922 1441.693359,2686.701904 1440.227539,2684.959473 C1441.089478,2684.655762 1442.254761,2685.375977 1443.719238,2687.117188 z"/>
  <path fill="#EE8F06" opacity="1.000000" stroke="none" d=" M1447.677979,2691.143311 C1446.741089,2691.506592 1445.500610,2690.849854 1444.061401,2689.086426 C1445.033325,2688.693848 1446.203857,2689.408691 1447.677979,2691.143311 z"/>
  <path fill="#EE8F06" opacity="1.000000" stroke="none" d=" M1451.636230,2695.173340 C1450.644897,2695.578857 1449.338135,2694.976074 1447.933105,2693.194824 C1448.996704,2692.732910 1450.158691,2693.449219 1451.636230,2695.173340 z"/>
  <path fill="#FFFFFF" opacity="1.000000" stroke="none" d=" M2158.756348,791.353821 C2159.089355,793.362732 2157.916748,794.813721 2155.254395,796.207336 C2154.926514,794.365234 2156.088623,792.580627 2158.756348,791.353821 z"/>
  <path fill="#B94B39" opacity="1.000000" stroke="none" d=" M1117.128906,4102.625000 C1116.013184,4102.561035 1115.405273,4101.982422 1114.797241,4101.403320 C1115.743774,4101.638672 1116.690308,4101.874023 1117.128906,4102.625000 z"/>
  <path fill="#B94B39" opacity="1.000000" stroke="none" d=" M1059.941650,3956.071777 C1059.436035,3955.459473 1058.930420,3954.847412 1058.424805,3954.234863 C1058.810547,3954.419922 1059.196411,3954.604980 1059.789795,3955.396729 C1059.997437,3956.003418 1059.941650,3956.071777 1059.941650,3956.071777 z"/>
  <path fill="#B94B39" opacity="1.000000" stroke="none" d=" M1045.837036,4065.712402 C1046.131226,4065.528076 1046.233154,4066.283203 1046.233154,4066.283203 C1046.233154,4066.283203 1045.542847,4065.896729 1045.837036,4065.712402 z"/>
  <path fill="#EE8F06" opacity="1.000000" stroke="none" d=" M1030.901733,3504.096191 C1029.019531,3505.267822 1025.778076,3506.541016 1021.147583,3507.849365 C1023.019897,3506.655518 1026.281250,3505.426514 1030.901733,3504.096191 z"/>
  <path fill="#EE8F06" opacity="1.000000" stroke="none" d=" M1304.386353,2898.595459 C1302.648926,2897.833984 1301.015259,2895.693115 1299.412231,2892.090332 C1301.125366,2892.824219 1302.807739,2895.020264 1304.386353,2898.595459 z"/>
  <path fill="#EE8F06" opacity="1.000000" stroke="none" d=" M1313.143799,2910.699707 C1310.858643,2910.064697 1309.333984,2908.204102 1307.943359,2905.066406 C1310.019653,2905.684326 1311.961792,2907.579346 1313.143799,2910.699707 z"/>
  <path fill="#EE8F06" opacity="1.000000" stroke="none" d=" M1288.871948,2878.658203 C1286.753906,2878.071533 1285.161011,2876.216309 1283.838623,2873.081055 C1285.871704,2873.663818 1287.634399,2875.526611 1288.871948,2878.658203 z"/>
  <path fill="#EE8F06" opacity="1.000000" stroke="none" d=" M1280.570312,2866.398926 C1278.932739,2867.245117 1277.571655,2866.653564 1276.219727,2864.857910 C1277.768433,2864.089355 1279.307617,2864.525146 1280.570312,2866.398926 z"/>
  <path fill="#EE8F06" opacity="1.000000" stroke="none" d=" M1284.197510,2870.695312 C1282.875122,2871.333252 1281.529419,2870.724121 1280.178955,2868.916016 C1281.507446,2868.294189 1282.840820,2868.871582 1284.197510,2870.695312 z"/>
  <path fill="#EE8F06" opacity="1.000000" stroke="none" d=" M1292.306885,2882.627930 C1291.062744,2883.232178 1289.842651,2882.535889 1288.378906,2880.759277 C1289.533813,2880.228760 1290.932251,2880.778320 1292.306885,2882.627930 z"/>
  <path fill="#EE8F06" opacity="1.000000" stroke="none" d=" M1316.588135,2914.438965 C1315.067993,2915.189453 1313.824219,2914.533691 1312.372803,2912.764648 C1313.731567,2912.111816 1315.298096,2912.572266 1316.588135,2914.438965 z"/>
  <path fill="#EE8F06" opacity="1.000000" stroke="none" d=" M1297.023193,2887.218750 C1296.102173,2887.656738 1294.510376,2886.969971 1292.480957,2885.013672 C1293.479736,2884.527344 1294.916138,2885.310547 1297.023193,2887.218750 z"/>
  <path fill="#EE8F06" opacity="1.000000" stroke="none" d=" M1308.121338,2902.789551 C1306.969849,2903.301514 1305.715820,2902.631836 1304.281982,2900.837402 C1305.407715,2900.344238 1306.713257,2900.975830 1308.121338,2902.789551 z"/>
  <path fill="#B94B39" opacity="1.000000" stroke="none" d=" M1248.032227,2861.547607 C1249.211914,2862.177002 1250.516724,2863.955322 1251.922974,2866.897461 C1250.735352,2866.273193 1249.446411,2864.484863 1248.032227,2861.547607 z"/>
  <path fill="#B94B39" opacity="1.000000" stroke="none" d=" M1252.036499,2869.169434 C1253.274658,2869.844971 1254.594849,2871.737793 1256.014282,2874.831543 C1254.781860,2874.150635 1253.450317,2872.268555 1252.036499,2869.169434 z"/>
  <path fill="#B94B39" opacity="1.000000" stroke="none" d=" M1256.059937,2877.111328 C1257.348633,2877.774902 1258.682373,2879.670898 1260.089111,2882.779297 C1258.809814,2882.108887 1257.457397,2880.226318 1256.059937,2877.111328 z"/>
  <path fill="#EE8F06" opacity="1.000000" stroke="none" d=" M1018.586060,3763.620605 C1017.625732,3765.110840 1015.212952,3766.489014 1011.309265,3767.956055 C1012.256714,3766.532471 1014.695068,3765.020508 1018.586060,3763.620605 z"/>
  <path fill="#EE8F06" opacity="1.000000" stroke="none" d=" M2832.038818,4027.979004 C2835.697998,4028.290283 2839.301758,4028.678955 2843.963623,4029.933105 C2845.021729,4030.798340 2844.092773,4031.915283 2842.387207,4032.233887 C2837.750977,4031.109131 2834.820557,4029.666016 2831.890137,4028.222900 C2831.890137,4028.222900 2831.983398,4028.056396 2832.038818,4027.979004 z"/>
  <path fill="#080606" opacity="1.000000" stroke="none" d=" M2032.176514,1447.743042 C2032.101562,1447.789062 2033.178833,1449.027588 2033.178833,1449.027588 C2033.178833,1449.027588 2032.553955,1448.472534 2032.450928,1448.004639 C2032.347900,1447.536621 2032.251343,1447.697021 2032.176514,1447.743042 z"/>
  <path fill="#D9A9AB" opacity="1.000000" stroke="none" d=" M1927.910034,3829.482422 C1928.981934,3830.172852 1930.109985,3831.897949 1931.021240,3834.691406 C1929.858276,3834.012451 1928.912231,3832.264404 1927.910034,3829.482422 z"/>
  <path fill="#D9A9AB" opacity="1.000000" stroke="none" d=" M1924.207031,3820.575684 C1925.440552,3821.394531 1926.624512,3823.463623 1927.727295,3826.757812 C1926.483276,3825.930420 1925.320312,3823.878174 1924.207031,3820.575684 z"/>
  <path fill="#E4B4A9" opacity="1.000000" stroke="none" d=" M1789.338379,3584.157959 C1789.433472,3582.289307 1790.057617,3581.047363 1790.681641,3579.805420 C1790.410034,3581.465332 1790.138672,3583.125000 1789.338379,3584.157959 z"/>
</svg>